<?xml version="1.0" standalone="no"?>
<!DOCTYPE svg PUBLIC "-//W3C//DTD SVG 20010904//EN"
 "http://www.w3.org/TR/2001/REC-SVG-20010904/DTD/svg10.dtd">
<svg version="1.0" xmlns="http://www.w3.org/2000/svg"
 width="512.000000pt" height="512.000000pt" viewBox="0 0 512.000000 512.000000"
 preserveAspectRatio="xMidYMid meet">
<metadata>
Created by potrace 1.11, written by Peter Selinger 2001-2013
</metadata>
<g transform="translate(0.000000,512.000000) scale(0.100000,-0.100000)"
fill="#000000" stroke="none">
<path d="M3165 4794 c-242 -32 -520 -112 -709 -203 -341 -165 -589 -432 -681
-735 -27 -89 -55 -239 -55 -293 0 -18 -6 -35 -12 -37 -7 -2 -43 -12 -80 -21
-147 -37 -289 -155 -357 -298 -50 -103 -65 -180 -59 -299 7 -137 56 -256 147
-355 l38 -40 -106 -6 c-193 -12 -301 -58 -422 -178 -83 -81 -135 -173 -160
-279 -16 -69 -16 -190 1 -261 17 -77 73 -186 125 -246 25 -28 45 -54 45 -57 0
-3 -40 -6 -90 -6 -117 0 -177 -13 -278 -62 -286 -136 -408 -483 -272 -772 66
-139 207 -262 352 -308 l73 -23 1895 0 1895 0 73 23 c144 45 281 165 350 305
140 286 17 638 -270 775 -101 49 -161 62 -278 62 -50 0 -90 3 -90 6 0 3 20 29
45 57 52 60 107 168 126 247 16 71 16 190 0 260 -48 205 -218 380 -421 435
-30 9 -103 18 -161 22 l-106 6 38 40 c93 102 140 218 147 363 8 180 -42 310
-167 435 -118 118 -257 178 -416 179 -212 1 -413 129 -505 321 -78 164 -78
323 0 488 89 185 290 320 478 321 43 0 58 5 77 25 55 54 14 126 -69 124 -22
-1 -86 -7 -141 -15z m-391 -246 c-5 -7 -19 -29 -32 -48 -37 -54 -80 -144 -75
-157 2 -6 -4 -27 -14 -45 -19 -36 -22 -64 -22 -213 0 -114 1 -130 16 -165 5
-14 20 -56 33 -95 13 -38 40 -94 59 -124 40 -61 169 -194 181 -186 5 3 22 -6
38 -20 38 -32 113 -65 160 -71 20 -3 41 -8 46 -13 19 -15 63 -21 150 -22 47 0
89 -5 92 -10 3 -6 14 -7 24 -4 22 7 142 -54 184 -93 37 -35 109 -128 129 -169
9 -17 17 -42 16 -55 0 -13 4 -54 10 -93 8 -56 7 -76 -5 -99 -8 -16 -12 -37 -9
-46 3 -10 -20 -54 -55 -108 -62 -94 -126 -148 -205 -175 -16 -5 -35 -14 -42
-19 -6 -5 -24 -11 -40 -14 -15 -3 -35 -7 -45 -10 -9 -3 -19 0 -22 5 -4 6 -17
6 -36 -1 -28 -9 -30 -13 -30 -63 0 -32 5 -57 13 -62 6 -4 152 -9 322 -9 260
-1 315 -4 339 -17 16 -9 33 -14 38 -11 18 11 228 -150 214 -164 -3 -2 3 -17
13 -31 9 -14 23 -42 30 -61 8 -19 19 -48 26 -65 10 -22 11 -52 4 -115 -13
-135 -37 -190 -128 -292 -42 -47 -137 -102 -199 -114 -18 -4 -34 -9 -36 -13
-2 -3 -221 -5 -486 -5 -459 1 -484 0 -501 -17 -22 -22 -24 -38 -8 -71 12 -27
66 -61 74 -47 7 10 48 12 58 3 8 -9 138 -7 161 2 11 4 27 2 39 -5 14 -9 22
-10 30 -2 12 12 50 15 60 5 8 -8 136 -8 144 0 10 10 51 7 59 -5 4 -8 9 -8 17
0 12 12 50 15 60 5 8 -8 136 -8 144 0 10 10 51 7 59 -5 4 -8 9 -8 17 0 12 12
50 15 60 5 8 -8 136 -8 144 0 10 10 51 7 59 -5 4 -8 9 -8 17 0 12 12 50 15 60
5 8 -8 136 -8 144 0 10 10 51 7 58 -4 3 -6 17 -7 31 -4 13 3 30 2 37 -4 6 -5
29 -15 49 -21 20 -7 53 -23 72 -36 19 -13 36 -21 39 -19 5 6 104 -113 133
-158 27 -44 54 -179 49 -248 -2 -30 -13 -73 -24 -95 -12 -21 -21 -47 -21 -56
0 -9 -36 -54 -79 -101 -61 -64 -89 -87 -123 -98 -23 -7 -56 -21 -73 -31 -24
-14 -55 -17 -162 -17 -73 0 -141 -3 -153 -7 -12 -4 -27 -2 -35 5 -10 8 -15 8
-20 0 -4 -6 -14 -8 -24 -5 -22 9 -173 9 -200 0 -12 -4 -28 -2 -36 5 -10 8 -15
8 -20 0 -4 -7 -17 -9 -29 -6 -28 9 -187 9 -207 1 -10 -3 -20 -1 -24 5 -5 8
-10 8 -20 0 -8 -7 -24 -9 -36 -5 -11 4 -60 6 -108 5 -47 -1 -107 -2 -133 -2
-27 0 -88 0 -138 0 -49 0 -112 0 -140 0 -27 0 -89 1 -137 1 -49 1 -98 -1 -109
-5 -12 -3 -25 -1 -29 6 -5 8 -10 8 -20 0 -8 -7 -24 -9 -36 -5 -27 9 -178 9
-200 0 -10 -3 -20 -1 -24 5 -5 8 -10 8 -20 0 -8 -7 -24 -9 -36 -5 -11 4 -60 6
-108 5 -47 -1 -107 -2 -133 -2 -27 0 -88 0 -138 0 -49 0 -111 0 -137 0 -27 0
-87 1 -134 2 -48 1 -97 -1 -108 -5 -12 -4 -28 -2 -36 5 -10 8 -15 8 -20 0 -4
-6 -14 -8 -24 -5 -22 9 -173 9 -200 0 -12 -4 -28 -2 -36 5 -10 8 -15 8 -20 0
-4 -7 -17 -9 -29 -6 -28 9 -187 9 -207 1 -10 -3 -20 -1 -24 5 -5 8 -10 8 -20
0 -8 -7 -24 -9 -36 -5 -11 4 -60 6 -108 6 -47 -1 -93 -1 -101 -1 -8 0 -28 1
-45 1 -16 0 -39 6 -52 14 -12 8 -27 15 -32 15 -5 0 -22 5 -38 12 -15 6 -34 12
-42 14 -31 6 -198 187 -190 206 3 8 -16 66 -27 83 -16 25 -12 138 7 206 7 24
13 51 14 59 2 19 38 72 95 138 44 52 160 122 201 122 10 0 21 5 25 11 3 6 19
9 35 5 15 -3 31 -1 34 4 7 11 48 14 58 4 3 -3 36 -6 72 -6 36 0 69 3 72 6 10
10 51 7 59 -5 4 -8 9 -8 17 0 12 12 50 15 60 5 3 -3 36 -6 72 -6 36 0 69 3 72
6 10 10 51 7 59 -5 4 -8 9 -8 17 0 12 12 50 15 60 5 8 -8 136 -8 144 0 10 10
51 7 59 -5 4 -8 9 -8 17 0 12 12 50 15 60 5 8 -9 138 -7 161 2 10 4 27 2 37
-5 15 -8 24 -8 39 1 14 9 25 10 38 2 32 -19 75 -2 94 36 21 44 21 40 -3 70
l-21 25 -387 1 c-213 0 -391 3 -396 6 -6 3 -23 8 -39 12 -70 17 -148 65 -199
122 -95 106 -112 144 -127 283 -7 66 -6 91 5 115 7 17 17 42 21 56 24 85 114
186 215 244 79 46 99 47 612 48 l487 1 0 68 0 68 -52 3 c-29 2 -61 -1 -70 -7
-13 -7 -24 -6 -38 2 -12 8 -21 9 -25 3 -7 -11 -48 -14 -58 -4 -8 8 -143 8
-156 -1 -6 -3 -21 -3 -34 1 -12 4 -29 8 -37 8 -8 1 -32 10 -54 19 -21 9 -42
17 -46 17 -4 0 -25 12 -47 28 -21 15 -48 32 -59 38 -10 6 -44 48 -75 93 -52
77 -79 146 -82 211 -2 61 12 163 27 185 9 13 16 29 16 36 0 23 143 189 163
189 5 0 22 9 38 21 16 11 29 18 29 14 0 -3 10 1 23 9 12 9 58 18 102 21 57 4
85 11 97 23 18 18 27 70 15 88 -4 7 3 61 14 120 12 60 21 120 20 133 -1 13 3
29 7 35 12 16 47 110 44 119 -3 10 26 67 46 90 9 10 17 24 18 32 7 44 218 263
314 325 42 26 81 55 88 63 7 7 29 21 49 30 21 8 81 33 133 55 151 63 200 76
184 50z"/>
<path d="M3093 2823 c9 -2 23 -2 30 0 6 3 -1 5 -18 5 -16 0 -22 -2 -12 -5z"/>
<path d="M3035 2810 c-3 -6 1 -7 9 -4 18 7 21 14 7 14 -6 0 -13 -4 -16 -10z"/>
<path d="M3160 2816 c0 -2 7 -7 16 -10 8 -3 12 -2 9 4 -6 10 -25 14 -25 6z"/>
<path d="M2333 2803 c9 -2 23 -2 30 0 6 3 -1 5 -18 5 -16 0 -22 -2 -12 -5z"/>
<path d="M2275 2790 c-3 -6 1 -7 9 -4 18 7 21 14 7 14 -6 0 -13 -4 -16 -10z"/>
<path d="M2400 2796 c0 -2 7 -7 16 -10 8 -3 12 -2 9 4 -6 10 -25 14 -25 6z"/>
<path d="M2993 2778 c-11 -13 -24 -30 -28 -38 -8 -16 -6 -14 34 33 14 15 22
27 19 27 -2 0 -14 -10 -25 -22z"/>
<path d="M3220 2775 c40 -48 43 -51 32 -30 -6 11 -21 29 -34 40 -22 19 -22 19
2 -10z"/>
<path d="M2233 2758 c-11 -13 -24 -30 -28 -38 -8 -16 -6 -14 34 33 14 15 22
27 19 27 -2 0 -14 -10 -25 -22z"/>
<path d="M2460 2755 c40 -48 43 -51 32 -30 -6 11 -21 29 -34 40 -22 19 -22 19
2 -10z"/>
<path d="M3271 2674 c0 -11 3 -14 6 -6 3 7 2 16 -1 19 -3 4 -6 -2 -5 -13z"/>
<path d="M2511 2654 c0 -11 3 -14 6 -6 3 7 2 16 -1 19 -3 4 -6 -2 -5 -13z"/>
<path d="M3062 2575 l-32 -27 0 -117 c0 -111 1 -119 24 -140 13 -12 39 -24 58
-27 27 -5 40 -1 66 21 l32 27 0 117 c0 111 -1 119 -24 140 -13 12 -39 24 -58
27 -27 5 -40 1 -66 -21z"/>
<path d="M2302 2555 l-32 -27 0 -117 c0 -111 1 -119 24 -140 13 -12 39 -24 58
-27 27 -5 40 -1 66 21 l32 27 0 117 c0 111 -1 119 -24 140 -13 12 -39 24 -58
27 -27 5 -40 1 -66 -21z"/>
<path d="M2941 2184 c0 -11 3 -14 6 -6 3 7 2 16 -1 19 -3 4 -6 -2 -5 -13z"/>
<path d="M2181 2164 c0 -11 3 -14 6 -6 3 7 2 16 -1 19 -3 4 -6 -2 -5 -13z"/>
<path d="M2968 2115 c6 -11 21 -29 34 -40 22 -19 22 -19 -2 10 -40 48 -43 51
-32 30z"/>
<path d="M3226 2092 c-22 -27 -24 -32 -7 -17 20 17 47 55 39 55 -2 0 -16 -17
-32 -38z"/>
<path d="M2208 2095 c6 -11 21 -29 34 -40 22 -19 22 -19 -2 10 -40 48 -43 51
-32 30z"/>
<path d="M2466 2072 c-22 -27 -24 -32 -7 -17 20 17 47 55 39 55 -2 0 -16 -17
-32 -38z"/>
<path d="M3037 2049 c7 -7 15 -10 18 -7 3 3 -2 9 -12 12 -14 6 -15 5 -6 -5z"/>
<path d="M3170 2050 c-9 -6 -10 -10 -3 -10 6 0 15 5 18 10 8 12 4 12 -15 0z"/>
<path d="M2277 2029 c7 -7 15 -10 18 -7 3 3 -2 9 -12 12 -14 6 -15 5 -6 -5z"/>
<path d="M2410 2030 c-9 -6 -10 -10 -3 -10 6 0 15 5 18 10 8 12 4 12 -15 0z"/>
<path d="M3103 2033 c9 -2 23 -2 30 0 6 3 -1 5 -18 5 -16 0 -22 -2 -12 -5z"/>
<path d="M2343 2013 c9 -2 23 -2 30 0 6 3 -1 5 -18 5 -16 0 -22 -2 -12 -5z"/>
<path d="M2550 1949 c-127 -11 -240 -33 -295 -58 l-45 -20 0 -130 0 -131 38
-19 c171 -87 849 -92 1062 -8 l55 22 3 132 3 132 -39 20 c-112 57 -487 86
-782 60z"/>
</g>
</svg>
